<svg xmlns="http://www.w3.org/2000/svg" width="133" height="36" viewBox="0 0 133 36" fill="none"><g clip-path="url(#clip0_1183_4309)"><path d="M10.6281 35.0431C8.79484 35.0431 6.9987 34.7954 5.23975 34.2999C3.50554 33.8292 2.08104 33.1355 0.966194 32.2188L3.04723 28.7257C3.91432 29.4441 5.00439 30.014 6.31742 30.4351C7.65523 30.881 9.00541 31.104 10.368 31.104C12.5481 31.104 14.146 30.5961 15.1618 29.5804C16.1776 28.5894 16.6854 27.0906 16.6854 25.0839V21.5535L17.057 17.057L16.9084 12.5605V7.72955H21.3306V24.5636C21.3306 28.1559 20.414 30.7944 18.5806 32.4789C16.7473 34.1884 14.0966 35.0431 10.6281 35.0431ZM10.0336 26.6818C8.1507 26.6818 6.44129 26.2854 4.90529 25.4926C3.39406 24.6751 2.19252 23.5479 1.30065 22.1109C0.433548 20.6741 0 18.9894 0 17.057C0 15.1495 0.433548 13.4772 1.30065 12.0402C2.19252 10.6034 3.39406 9.48851 4.90529 8.69574C6.44129 7.90297 8.1507 7.50658 10.0336 7.50658C11.7182 7.50658 13.2294 7.84104 14.5672 8.50994C15.905 9.17884 16.9703 10.2194 17.7631 11.6315C18.5806 13.0436 18.9894 14.8522 18.9894 17.057C18.9894 19.262 18.5806 21.0829 17.7631 22.5197C16.9703 23.9319 15.905 24.9848 14.5672 25.6784C13.2294 26.3473 11.7182 26.6818 10.0336 26.6818ZM10.7396 22.7427C11.904 22.7427 12.9446 22.5074 13.8612 22.0366C14.7778 21.5412 15.4838 20.8723 15.9794 20.0299C16.4996 19.1629 16.7597 18.1719 16.7597 17.057C16.7597 15.9422 16.4996 14.9637 15.9794 14.1213C15.4838 13.2543 14.7778 12.5977 13.8612 12.1517C12.9446 11.6811 11.904 11.4457 10.7396 11.4457C9.57522 11.4457 8.52232 11.6811 7.58091 12.1517C6.66425 12.5977 5.94581 13.2543 5.42555 14.1213C4.93006 14.9637 4.68233 15.9422 4.68233 17.057C4.68233 18.1719 4.93006 19.1629 5.42555 20.0299C5.94581 20.8723 6.66425 21.5412 7.58091 22.0366C8.52232 22.5074 9.57522 22.7427 10.7396 22.7427ZM35.6037 27.8338C33.3988 27.8338 31.4664 27.4003 29.8065 26.5331C28.1714 25.6413 26.8956 24.4274 25.9789 22.8913C25.087 21.3554 24.6411 19.6088 24.6411 17.6516C24.6411 15.6697 25.0747 13.9232 25.9417 12.4118C26.8336 10.8759 28.0476 9.67432 29.5835 8.80723C31.1443 7.94013 32.9157 7.50658 34.8976 7.50658C36.83 7.50658 38.5518 7.92774 40.063 8.77007C41.5743 9.61239 42.7635 10.8015 43.6305 12.3375C44.4976 13.8736 44.9311 15.682 44.9311 17.7631C44.9311 17.9613 44.9188 18.1843 44.894 18.432C44.894 18.6798 44.8817 18.9151 44.8568 19.138H28.32V16.0537H42.4042L40.5833 17.0198C40.6081 15.8803 40.3727 14.8769 39.8772 14.0098C39.3818 13.1428 38.7005 12.4614 37.8333 11.9659C36.991 11.4705 36.0124 11.2227 34.8976 11.2227C33.758 11.2227 32.7547 11.4705 31.8875 11.9659C31.0452 12.4614 30.3763 13.1551 29.8808 14.0469C29.4101 14.9141 29.1747 15.9422 29.1747 17.1313V17.8746C29.1747 19.0637 29.4473 20.1167 29.9923 21.0333C30.5374 21.95 31.3054 22.6561 32.2963 23.1515C33.2873 23.647 34.4269 23.8947 35.7151 23.8947C36.83 23.8947 37.8333 23.7213 38.7252 23.3744C39.6171 23.0277 40.4099 22.4826 41.1035 21.7393L43.5933 24.6008C42.7015 25.6413 41.5743 26.4465 40.2117 27.0162C38.8738 27.5613 37.3379 27.8338 35.6037 27.8338ZM54.3635 27.8338C52.7036 27.8338 51.1057 27.6232 49.5697 27.202C48.0585 26.7561 46.8569 26.2235 45.965 25.6041L47.7488 22.0738C48.6406 22.6436 49.7059 23.1143 50.9446 23.4859C52.1834 23.8575 53.422 24.0433 54.6608 24.0433C56.1225 24.0433 57.1753 23.8452 57.8195 23.4488C58.4884 23.0524 58.8228 22.5197 58.8228 21.8508C58.8228 21.3058 58.5999 20.8971 58.1539 20.6245C57.708 20.3272 57.1258 20.1042 56.4074 19.9556C55.6889 19.8069 54.8837 19.6707 53.9919 19.5468C53.1247 19.423 52.2453 19.262 51.3534 19.0637C50.4863 18.8408 49.6936 18.5312 48.9751 18.1347C48.2566 17.7136 47.6744 17.1562 47.2285 16.4624C46.7826 15.7688 46.5596 14.8522 46.5596 13.7125C46.5596 12.449 46.9188 11.359 47.6373 10.4423C48.3558 9.5009 49.3591 8.78245 50.6474 8.28697C51.9604 7.76671 53.5088 7.50658 55.2925 7.50658C56.6303 7.50658 57.9806 7.65523 59.3431 7.95252C60.7056 8.24981 61.8329 8.67096 62.7248 9.216L60.941 12.7463C59.9996 12.1766 59.0458 11.7925 58.0796 11.5943C57.1382 11.3714 56.1968 11.2599 55.2554 11.2599C53.8432 11.2599 52.7903 11.4705 52.0966 11.8916C51.4277 12.3128 51.0933 12.8455 51.0933 13.4895C51.0933 14.0841 51.3163 14.53 51.7622 14.8273C52.2081 15.1246 52.7903 15.36 53.5088 15.5334C54.2273 15.7069 55.02 15.8555 55.8871 15.9793C56.779 16.0785 57.6584 16.2395 58.5255 16.4624C59.3927 16.6854 60.1854 16.9951 60.9039 17.3915C61.6471 17.7631 62.2417 18.2958 62.6876 18.9894C63.1335 19.6832 63.3565 20.5873 63.3565 21.7022C63.3565 22.9409 62.9849 24.0186 62.2417 24.9352C61.5232 25.8519 60.4951 26.5703 59.1573 27.0906C57.8195 27.5861 56.2215 27.8338 54.3635 27.8338ZM74.594 27.8338C72.6864 27.8338 70.9646 27.4127 69.4286 26.5703C67.9174 25.7033 66.7282 24.5141 65.8611 23.0028C64.994 21.4916 64.5604 19.7079 64.5604 17.6516C64.5604 15.5954 64.994 13.8117 65.8611 12.3004C66.7282 10.7892 67.9174 9.61239 69.4286 8.77007C70.9646 7.92774 72.6864 7.50658 74.594 7.50658C76.2539 7.50658 77.7404 7.8782 79.0533 8.62142C80.3664 9.33987 81.4069 10.4423 82.1749 11.9288C82.9429 13.4152 83.3269 15.3229 83.3269 17.6516C83.3269 19.9556 82.9553 21.8632 82.212 23.3744C81.4688 24.8609 80.4407 25.9757 79.1276 26.7189C77.8147 27.4622 76.3034 27.8338 74.594 27.8338ZM75.1514 23.8575C76.2662 23.8575 77.2573 23.6098 78.1243 23.1143C79.0162 22.6189 79.7222 21.9004 80.2425 20.9589C80.7876 20.0176 81.06 18.9151 81.06 17.6516C81.06 16.3634 80.7876 15.261 80.2425 14.3442C79.7222 13.4029 79.0162 12.6844 78.1243 12.1889C77.2573 11.6935 76.2662 11.4457 75.1514 11.4457C74.0365 11.4457 73.0332 11.6935 72.1413 12.1889C71.2743 12.6844 70.5682 13.4029 70.0231 14.3442C69.5029 15.261 69.2427 16.3634 69.2427 17.6516C69.2427 18.9151 69.5029 20.0176 70.0231 20.9589C70.5682 21.9004 71.2743 22.6189 72.1413 23.1143C73.0332 23.6098 74.0365 23.8575 75.1514 23.8575ZM81.1715 27.5737V22.8913L81.3573 17.6144L80.9857 12.3375V0H85.5937V27.5737H81.1715ZM99.8739 27.8338C97.6689 27.8338 95.7365 27.4003 94.0767 26.5331C92.4416 25.6413 91.1657 24.4274 90.2491 22.8913C89.3572 21.3554 88.9113 19.6088 88.9113 17.6516C88.9113 15.6697 89.3448 13.9232 90.2119 12.4118C91.1038 10.8759 92.3177 9.67432 93.8537 8.80723C95.4145 7.94013 97.1858 7.50658 99.1678 7.50658C101.1 7.50658 102.822 7.92774 104.333 8.77007C105.844 9.61239 107.034 10.8015 107.901 12.3375C108.768 13.8736 109.201 15.682 109.201 17.7631C109.201 17.9613 109.189 18.1843 109.164 18.432C109.164 18.6798 109.152 18.9151 109.127 19.138H92.5902V16.0537H106.674L104.853 17.0198C104.878 15.8803 104.643 14.8769 104.147 14.0098C103.652 13.1428 102.971 12.4614 102.104 11.9659C101.261 11.4705 100.283 11.2227 99.1678 11.2227C98.0282 11.2227 97.0249 11.4705 96.1577 11.9659C95.3154 12.4614 94.6465 13.1551 94.151 14.0469C93.6804 14.9141 93.445 15.9422 93.445 17.1313V17.8746C93.445 19.0637 93.7175 20.1167 94.2625 21.0333C94.8075 21.95 95.5756 22.6561 96.5665 23.1515C97.5574 23.647 98.6971 23.8947 99.9853 23.8947C101.1 23.8947 102.104 23.7213 102.995 23.3744C103.887 23.0277 104.68 22.4826 105.374 21.7393L107.864 24.6008C106.972 25.6413 105.844 26.4465 104.482 27.0162C103.144 27.5613 101.608 27.8338 99.8739 27.8338ZM123.762 7.50658C125.347 7.50658 126.759 7.81625 127.999 8.43562C129.262 9.05497 130.253 10.0088 130.971 11.297C131.689 12.5605 132.049 14.1956 132.049 16.2023V27.5737H127.404V16.7969C127.404 15.038 126.982 13.7249 126.141 12.8578C125.323 11.9908 124.171 11.5572 122.684 11.5572C121.594 11.5572 120.628 11.7801 119.786 12.226C118.943 12.672 118.287 13.3409 117.816 14.2328C117.37 15.0999 117.147 16.2023 117.147 17.5401V27.5737H112.502V7.72955H116.924V13.0808L116.144 11.4457C116.837 10.1822 117.841 9.216 119.154 8.5471C120.492 7.85342 122.027 7.50658 123.762 7.50658Z" fill="#003082"></path></g><defs><clipPath id="clip0_1183_4309"><rect width="132.387" height="36" fill="white"></rect></clipPath></defs></svg>