<svg xmlns="http://www.w3.org/2000/svg" width="100" height="38" viewBox="0 0 100 38" fill="none"><path d="M25.3933 26.0674C23.7079 27.4157 21.573 28.2022 19.3258 28.2022C14.0449 28.2022 9.66292 24.0449 9.66292 18.8764C9.66292 13.7079 13.9326 9.55056 19.3258 9.55056C21.6854 9.55056 23.7079 10.3371 25.3933 11.6854C26.4045 8.65168 28.0899 5.73034 30.3371 3.37079C27.191 1.23595 23.4831 0.11236 19.4382 0.11236C8.65168 -0.11236 0 8.31461 0 18.764C0 29.2135 8.65168 37.6404 19.4382 37.6404C23.4831 37.6404 27.3034 36.4045 30.3371 34.382C28.0899 31.9101 26.5169 29.1011 25.3933 26.0674ZM55.8427 26.0674C54.1573 27.4157 52.0225 28.2022 49.7753 28.2022C44.4944 28.2022 40.1124 24.0449 40.1124 18.8764C40.1124 13.7079 44.382 9.55056 49.7753 9.55056C52.1348 9.55056 54.1573 10.3371 55.8427 11.6854C56.8539 8.65168 58.5393 5.73034 60.7865 3.37079C57.6404 1.23595 53.9326 0.11236 49.8876 0.11236C39.1011 0.11236 30.4494 8.53933 30.4494 18.9888C30.4494 29.4382 39.1011 37.8652 49.8876 37.8652C53.9326 37.8652 57.7528 36.6292 60.7865 34.6067C58.5393 31.9101 56.8539 29.1011 55.8427 26.0674ZM89.7753 18.764C89.7753 23.9326 85.5056 28.0899 80.1124 28.0899C74.8315 28.0899 70.4494 23.9326 70.4494 18.764C70.4494 13.5955 74.7191 9.4382 80.1124 9.4382C82.4719 9.4382 84.4944 10.2247 86.1798 11.573C87.191 8.53933 88.8764 5.61798 91.1236 3.25843C87.9775 1.1236 84.2697 0 80.2247 0C69.4382 0 60.7865 8.42697 60.7865 18.8764C60.7865 29.3258 69.4382 37.7528 80.2247 37.7528C91.0112 37.7528 99.6629 29.3258 99.6629 18.8764H89.7753V18.764Z" fill="#F03137"></path></svg>