<svg xmlns="http://www.w3.org/2000/svg" width="79" height="30" viewBox="0 0 79 30" fill="none"><path d="M19.9412 20.4706C18.6176 21.5294 16.9412 22.1471 15.1765 22.1471C11.0294 22.1471 7.58824 18.8824 7.58824 14.8235C7.58824 10.7647 10.9412 7.5 15.1765 7.5C17.0294 7.5 18.6176 8.11765 19.9412 9.17647C20.7353 6.79412 22.0588 4.5 23.8235 2.64706C21.3529 0.970588 18.4412 0.0882353 15.2647 0.0882353C6.79412 -0.0882353 0 6.52941 0 14.7353C0 22.9412 6.79412 29.5588 15.2647 29.5588C18.4412 29.5588 21.4412 28.5882 23.8235 27C22.0588 25.0588 20.8235 22.8529 19.9412 20.4706ZM43.8529 20.4706C42.5294 21.5294 40.8529 22.1471 39.0882 22.1471C34.9412 22.1471 31.5 18.8824 31.5 14.8235C31.5 10.7647 34.8529 7.5 39.0882 7.5C40.9412 7.5 42.5294 8.11765 43.8529 9.17647C44.6471 6.79412 45.9706 4.5 47.7353 2.64706C45.2647 0.970588 42.3529 0.0882353 39.1765 0.0882353C30.7059 0.0882353 23.9118 6.70588 23.9118 14.9118C23.9118 23.1176 30.7059 29.7353 39.1765 29.7353C42.3529 29.7353 45.3529 28.7647 47.7353 27.1765C45.9706 25.0588 44.6471 22.8529 43.8529 20.4706ZM70.5 14.7353C70.5 18.7941 67.1471 22.0588 62.9118 22.0588C58.7647 22.0588 55.3235 18.7941 55.3235 14.7353C55.3235 10.6765 58.6765 7.41176 62.9118 7.41176C64.7647 7.41176 66.3529 8.02941 67.6765 9.08824C68.4706 6.70588 69.7941 4.41176 71.5588 2.55882C69.0882 0.882353 66.1765 0 63 0C54.5294 0 47.7353 6.61765 47.7353 14.8235C47.7353 23.0294 54.5294 29.6471 63 29.6471C71.4706 29.6471 78.2647 23.0294 78.2647 14.8235H70.5V14.7353Z" fill="#FFFFFF"></path></svg>